<svg width="175" height="56" viewBox="0 0 175 56" fill="none" xmlns="http://www.w3.org/2000/svg">
<rect width="175" height="56" rx="16" fill="#353740"/>
<path d="M39.4652 28.7343C39.4995 26.0583 40.931 23.5262 43.202 22.1246C41.7693 20.0706 39.3697 18.7682 36.8732 18.6898C34.2104 18.4092 31.6289 20.2894 30.272 20.2894C28.8889 20.2894 26.7997 18.7177 24.55 18.7642C21.6176 18.8593 18.8839 20.533 17.4573 23.1066C14.3905 28.437 16.678 36.2708 19.6157 40.5794C21.0855 42.6892 22.8033 45.0459 25.051 44.9624C27.2504 44.8708 28.0719 43.5544 30.7268 43.5544C33.3571 43.5544 34.1278 44.9624 36.4211 44.9092C38.7812 44.8708 40.2682 42.79 41.6864 40.6602C42.7425 39.1569 43.5551 37.4954 44.0942 35.7373C41.3206 34.5596 39.4684 31.7575 39.4652 28.7343Z" fill="white"/>
<path d="M35.1335 15.8563C36.4204 14.3054 37.0544 12.3121 36.9008 10.2996C34.9348 10.5069 33.1188 11.4501 31.8146 12.9415C30.5392 14.3986 29.8755 16.3569 30.001 18.2925C31.9677 18.3128 33.9011 17.3951 35.1335 15.8563Z" fill="white"/>
<path d="M116.52 24.6809V27.9236H114.496V30.0502H116.52V37.2757C116.52 39.743 117.632 40.7299 120.429 40.7299C120.921 40.7299 121.389 40.6712 121.798 40.6007V38.4976C121.447 38.5329 121.225 38.5564 120.839 38.5564C119.586 38.5564 119.036 37.9689 119.036 36.6295V30.0502H121.798V27.9236H119.036V24.6809H116.52Z" fill="white"/>
<path d="M128.924 40.9061C132.645 40.9061 134.928 38.4036 134.928 34.2563C134.928 30.1324 132.634 27.6182 128.924 27.6182C125.202 27.6182 122.908 30.1324 122.908 34.2563C122.908 38.4036 125.19 40.9061 128.924 40.9061ZM128.924 38.6621C126.735 38.6621 125.506 37.0525 125.506 34.2563C125.506 31.4835 126.735 29.8622 128.924 29.8622C131.101 29.8622 132.341 31.4835 132.341 34.2563C132.341 37.0408 131.101 38.6621 128.924 38.6621Z" fill="white"/>
<path d="M136.88 40.6594H139.396V33.1049C139.396 31.3073 140.742 30.0972 142.65 30.0972C143.094 30.0972 143.843 30.1794 144.054 30.2499V27.7591C143.785 27.6886 143.305 27.6534 142.931 27.6534C141.269 27.6534 139.853 28.5698 139.49 29.8269H139.303V27.8649H136.88V40.6594Z" fill="white"/>
<path d="M150.302 29.7682C152.163 29.7682 153.38 31.0723 153.438 33.0814H147.001C147.142 31.0841 148.441 29.7682 150.302 29.7682ZM153.427 37.2052C152.958 38.2039 151.917 38.7561 150.395 38.7561C148.382 38.7561 147.083 37.3345 147.001 35.0904V34.9495H156.001V34.0683C156.001 30.0502 153.86 27.6182 150.313 27.6182C146.721 27.6182 144.438 30.2147 144.438 34.3033C144.438 38.3919 146.674 40.9061 150.325 40.9061C153.239 40.9061 155.276 39.4963 155.849 37.2052H153.427Z" fill="white"/>
<path d="M100.019 35.9346C100.214 39.0764 102.821 41.0856 106.703 41.0856C110.852 41.0856 113.447 38.9789 113.447 35.618C113.447 32.9755 111.968 31.5142 108.377 30.674L106.448 30.1991C104.168 29.6632 103.246 28.9448 103.246 27.6905C103.246 26.1075 104.677 25.0724 106.824 25.0724C108.862 25.0724 110.269 26.0831 110.524 27.7027H113.168C113.011 24.7436 110.415 22.6613 106.861 22.6613C103.04 22.6613 100.493 24.7436 100.493 27.8732C100.493 30.4548 101.936 31.9891 105.102 32.7319L107.358 33.2799C109.675 33.8279 110.694 34.6316 110.694 35.9711C110.694 37.5298 109.093 38.6623 106.909 38.6623C104.568 38.6623 102.943 37.6029 102.712 35.9346H100.019Z" fill="white"/>
<path d="M73.9543 27.6534C72.2222 27.6534 70.7242 28.5228 69.9518 29.9797H69.7645V27.8649H67.342V44.9125H69.8582V38.7208H70.0571C70.7242 40.072 72.1637 40.8709 73.9777 40.8709C77.1961 40.8709 79.2441 38.3214 79.2441 34.2563C79.2441 30.1912 77.1961 27.6534 73.9543 27.6534ZM73.2404 38.6034C71.1338 38.6034 69.8114 36.935 69.8114 34.268C69.8114 31.5893 71.1338 29.9209 73.2521 29.9209C75.3821 29.9209 76.6577 31.554 76.6577 34.2563C76.6577 36.9703 75.3821 38.6034 73.2404 38.6034Z" fill="white"/>
<path d="M88.0487 27.6534C86.3166 27.6534 84.8186 28.5228 84.0462 29.9797H83.8589V27.8649H81.4364V44.9125H83.9526V38.7208H84.1515C84.8186 40.072 86.2581 40.8709 88.0721 40.8709C91.2905 40.8709 93.3385 38.3214 93.3385 34.2563C93.3385 30.1912 91.2905 27.6534 88.0487 27.6534ZM87.3348 38.6034C85.2282 38.6034 83.9058 36.935 83.9058 34.268C83.9058 31.5893 85.2282 29.9209 87.3465 29.9209C89.4765 29.9209 90.7521 31.554 90.7521 34.2563C90.7521 36.9703 89.4765 38.6034 87.3348 38.6034Z" fill="white"/>
<path d="M62.8275 40.6594H65.7144L59.3947 23.0875H56.4714L50.1516 40.6594H52.9415L54.5548 35.9955H61.2263L62.8275 40.6594ZM57.7935 26.2779H57.9997L60.5349 33.7061H55.2462L57.7935 26.2779Z" fill="white"/>
<path d="M50.0818 10.6931V17.6388H52.5798C54.6415 17.6388 55.8354 16.3633 55.8354 14.1443C55.8354 11.959 54.6319 10.6931 52.5798 10.6931H50.0818ZM51.1558 11.675H52.46C53.8936 11.675 54.7422 12.5896 54.7422 14.1587C54.7422 15.752 53.9079 16.6569 52.46 16.6569H51.1558V11.675Z" fill="white"/>
<path d="M59.4918 17.7399C61.0166 17.7399 61.9515 16.7146 61.9515 15.0155C61.9515 13.326 61.0118 12.2959 59.4918 12.2959C57.9671 12.2959 57.0274 13.326 57.0274 15.0155C57.0274 16.7146 57.9623 17.7399 59.4918 17.7399ZM59.4918 16.8205C58.5952 16.8205 58.0918 16.1611 58.0918 15.0155C58.0918 13.8795 58.5952 13.2153 59.4918 13.2153C60.3837 13.2153 60.8919 13.8795 60.8919 15.0155C60.8919 16.1563 60.3837 16.8205 59.4918 16.8205Z" fill="white"/>
<path d="M69.9136 12.397H68.8827L67.9526 16.397H67.871L66.797 12.397H65.8093L64.7353 16.397H64.6586L63.7236 12.397H62.6784L64.1168 17.6388H65.1764L66.2504 13.7785H66.332L67.4108 17.6388H68.48L69.9136 12.397Z" fill="white"/>
<path d="M71.1007 17.6388H72.1316V14.5727C72.1316 13.7544 72.6159 13.2442 73.3782 13.2442C74.1406 13.2442 74.505 13.6629 74.505 14.5053V17.6388H75.5358V14.2454C75.5358 12.9987 74.8933 12.2959 73.7282 12.2959C72.9419 12.2959 72.4241 12.6473 72.17 13.2297H72.0932V12.397H71.1007V17.6388Z" fill="white"/>
<path d="M77.1593 17.6388H78.1902V10.3513H77.1593V17.6388Z" fill="white"/>
<path d="M82.0672 17.7399C83.5919 17.7399 84.5268 16.7146 84.5268 15.0155C84.5268 13.326 83.5871 12.2959 82.0672 12.2959C80.5425 12.2959 79.6027 13.326 79.6027 15.0155C79.6027 16.7146 80.5377 17.7399 82.0672 17.7399ZM82.0672 16.8205C81.1706 16.8205 80.6671 16.1611 80.6671 15.0155C80.6671 13.8795 81.1706 13.2153 82.0672 13.2153C82.959 13.2153 83.4672 13.8795 83.4672 15.0155C83.4672 16.1563 82.959 16.8205 82.0672 16.8205Z" fill="white"/>
<path d="M87.5983 16.8542C87.0373 16.8542 86.6298 16.5799 86.6298 16.1082C86.6298 15.6461 86.9558 15.4006 87.675 15.3524L88.9504 15.2706V15.7086C88.9504 16.3584 88.3751 16.8542 87.5983 16.8542ZM87.3346 17.7255C88.0202 17.7255 88.5908 17.427 88.9025 16.9024H88.984V17.6388H89.9765V14.0576C89.9765 12.9506 89.2381 12.2959 87.9291 12.2959C86.7449 12.2959 85.901 12.8735 85.7955 13.7736H86.7928C86.9079 13.403 87.3058 13.1912 87.8812 13.1912C88.586 13.1912 88.9504 13.5041 88.9504 14.0576V14.5101L87.536 14.5919C86.2942 14.6689 85.5941 15.2129 85.5941 16.1563C85.5941 17.1142 86.3277 17.7255 87.3346 17.7255Z" fill="white"/>
<path d="M93.4747 17.7255C94.1939 17.7255 94.8028 17.3837 95.1145 16.8109H95.196V17.6388H96.1837V10.3513H95.1528V13.2297H95.0761C94.7932 12.6521 94.1891 12.3104 93.4747 12.3104C92.1562 12.3104 91.3075 13.3597 91.3075 15.0155C91.3075 16.6761 92.1466 17.7255 93.4747 17.7255ZM93.7672 13.2394C94.6302 13.2394 95.172 13.9277 95.172 15.0203C95.172 16.1178 94.635 16.7965 93.7672 16.7965C92.8945 16.7965 92.3719 16.1274 92.3719 15.0155C92.3719 13.9132 92.8993 13.2394 93.7672 13.2394Z" fill="white"/>
<path d="M102.868 17.7399C104.393 17.7399 105.328 16.7146 105.328 15.0155C105.328 13.326 104.388 12.2959 102.868 12.2959C101.344 12.2959 100.404 13.326 100.404 15.0155C100.404 16.7146 101.339 17.7399 102.868 17.7399ZM102.868 16.8205C101.972 16.8205 101.468 16.1611 101.468 15.0155C101.468 13.8795 101.972 13.2153 102.868 13.2153C103.76 13.2153 104.268 13.8795 104.268 15.0155C104.268 16.1563 103.76 16.8205 102.868 16.8205Z" fill="white"/>
<path d="M106.693 17.6388H107.724V14.5727C107.724 13.7544 108.208 13.2442 108.97 13.2442C109.733 13.2442 110.097 13.6629 110.097 14.5053V17.6388H111.128V14.2454C111.128 12.9987 110.485 12.2959 109.32 12.2959C108.534 12.2959 108.016 12.6473 107.762 13.2297H107.685V12.397H106.693V17.6388Z" fill="white"/>
<path d="M115.875 11.0926V12.4211H115.046V13.2923H115.875V16.2526C115.875 17.2634 116.331 17.6677 117.477 17.6677C117.678 17.6677 117.87 17.6436 118.038 17.6147V16.7531C117.894 16.7676 117.803 16.7772 117.645 16.7772C117.132 16.7772 116.906 16.5365 116.906 15.9878V13.2923H118.038V12.4211H116.906V11.0926H115.875Z" fill="white"/>
<path d="M119.422 17.6388H120.452V14.5775C120.452 13.7833 120.922 13.249 121.766 13.249C122.495 13.249 122.883 13.6726 122.883 14.5101V17.6388H123.914V14.255C123.914 13.0083 123.229 12.3007 122.116 12.3007C121.33 12.3007 120.779 12.6521 120.524 13.2394H120.443V10.3513H119.422V17.6388Z" fill="white"/>
<path d="M127.633 13.1768C128.395 13.1768 128.894 13.7111 128.918 14.5342H126.281C126.338 13.7159 126.871 13.1768 127.633 13.1768ZM128.913 16.2237C128.721 16.6328 128.295 16.859 127.671 16.859C126.847 16.859 126.314 16.2766 126.281 15.3573V15.2995H129.968V14.9385C129.968 13.2923 129.091 12.2959 127.638 12.2959C126.166 12.2959 125.231 13.3597 125.231 15.0348C125.231 16.7098 126.147 17.7399 127.643 17.7399C128.836 17.7399 129.671 17.1623 129.906 16.2237H128.913Z" fill="white"/>
</svg>
