<svg width="175" height="56" viewBox="0 0 175 56" fill="none" xmlns="http://www.w3.org/2000/svg">
<rect width="175" height="56" rx="16" fill="#353740"/>
<g filter="url(#filter0_ii_572_7563)">
<path d="M18.1096 11.8998C17.7265 12.3069 17.5 12.9387 17.5 13.7569V42.9892C17.5 43.8087 17.7265 44.4392 18.1096 44.8463L18.207 44.9414L34.5188 28.566V28.3731V28.1801L18.207 11.8033L18.1096 11.8998Z" fill="url(#paint0_linear_572_7563)"/>
<path d="M39.9549 34.0258L34.5186 28.5656V28.3726V28.1796L39.9562 22.7207L40.0787 22.7908L46.521 26.4653C48.3603 27.5148 48.3603 29.2317 46.521 30.2825L40.0787 33.9571L39.9549 34.0258Z" fill="url(#paint1_linear_572_7563)"/>
<g filter="url(#filter1_i_572_7563)">
<path d="M40.0789 33.9558L34.5175 28.3727L18.1096 44.8459C18.7153 45.4909 19.7172 45.5702 20.8456 44.9279L40.0789 33.9558Z" fill="url(#paint2_linear_572_7563)"/>
</g>
<path d="M40.0789 22.7899L20.8456 11.8192C19.7172 11.1755 18.7153 11.2561 18.1096 11.9012L34.5188 28.3744L40.0789 22.7899Z" fill="url(#paint3_linear_572_7563)"/>
</g>
<path d="M89.2716 29.9721C86.3469 29.9721 83.9631 32.1957 83.9631 35.2581C83.9631 38.302 86.3469 40.5441 89.2716 40.5441C92.1976 40.5441 94.5814 38.302 94.5814 35.2581C94.5802 32.1957 92.1964 29.9721 89.2716 29.9721ZM89.2716 38.4635C87.6687 38.4635 86.2872 37.1423 86.2872 35.2594C86.2872 33.3565 87.67 32.0552 89.2716 32.0552C90.8745 32.0552 92.2561 33.3565 92.2561 35.2594C92.2561 37.1411 90.8745 38.4635 89.2716 38.4635ZM77.6895 29.9721C74.7648 29.9721 72.381 32.1957 72.381 35.2581C72.381 38.302 74.7648 40.5441 77.6895 40.5441C80.6155 40.5441 82.9993 38.302 82.9993 35.2581C82.9993 32.1957 80.6155 29.9721 77.6895 29.9721ZM77.6895 38.4635C76.0866 38.4635 74.7051 37.1423 74.7051 35.2594C74.7051 33.3565 76.0879 32.0552 77.6895 32.0552C79.2924 32.0552 80.674 33.3565 80.674 35.2594C80.6752 37.1411 79.2924 38.4635 77.6895 38.4635ZM63.9139 31.5953V33.8375H69.2834C69.123 35.099 68.7026 36.02 68.061 36.6601C67.2801 37.4406 66.0577 38.302 63.9139 38.302C60.6086 38.302 58.0246 35.6385 58.0246 32.3349C58.0246 29.0313 60.6086 26.3678 63.9139 26.3678C65.6971 26.3678 66.999 27.0688 67.9603 27.9699L69.5433 26.3877C68.2003 25.1062 66.4183 24.1256 63.9139 24.1256C59.3862 24.1256 55.5798 27.8095 55.5798 32.3349C55.5798 36.8602 59.3862 40.5441 63.9139 40.5441C66.3574 40.5441 68.2015 39.7425 69.6427 38.2411C71.125 36.7595 71.5864 34.6765 71.5864 32.9948C71.5864 32.4753 71.5466 31.9943 71.4657 31.5941L63.9139 31.5953ZM120.255 33.3366C119.815 32.1559 118.472 29.9721 115.727 29.9721C113.003 29.9721 110.738 32.1149 110.738 35.2581C110.738 38.2212 112.983 40.5441 115.987 40.5441C118.411 40.5441 119.814 39.0626 120.396 38.2013L118.592 36.9994C117.992 37.8806 117.17 38.4611 115.987 38.4611C114.806 38.4611 113.964 37.9204 113.423 36.859L120.495 33.9357L120.255 33.3366ZM113.043 35.099C112.983 33.0557 114.626 32.0154 115.808 32.0154C116.73 32.0154 117.511 32.4766 117.772 33.1365L113.043 35.099ZM107.294 40.2247H109.617V24.6874H107.294V40.2247ZM103.486 31.1541H103.407C102.886 30.5327 101.883 29.9721 100.622 29.9721C97.9775 29.9721 95.5539 32.2951 95.5539 35.2793C95.5539 38.2423 97.9775 40.5454 100.622 40.5454C101.885 40.5454 102.886 39.9848 103.407 39.3447H103.486V40.1054C103.486 42.1276 102.404 43.2089 100.662 43.2089C99.2396 43.2089 98.358 42.1885 97.9974 41.3271L95.9742 42.1686C96.5549 43.5693 98.0968 45.2919 100.662 45.2919C103.387 45.2919 105.691 43.6899 105.691 39.7847V30.294H103.487L103.486 31.1541ZM100.823 38.4635C99.2197 38.4635 97.878 37.1212 97.878 35.2793C97.878 33.4162 99.2197 32.0552 100.823 32.0552C102.404 32.0552 103.647 33.4162 103.647 35.2793C103.647 37.1212 102.404 38.4635 100.823 38.4635ZM131.141 24.6874H125.581V40.2247H127.9V34.3384H131.14C133.711 34.3384 136.24 32.4778 136.24 29.5135C136.24 26.5492 133.712 24.6874 131.141 24.6874ZM131.2 32.1758H127.9V26.85H131.2C132.935 26.85 133.92 28.2855 133.92 29.5135C133.92 30.7166 132.935 32.1758 131.2 32.1758ZM145.541 29.9448C143.861 29.9448 142.121 30.6843 141.401 32.3237L143.46 33.1825C143.9 32.3237 144.721 32.0428 145.58 32.0428C146.78 32.0428 148 32.7624 148.02 34.0414V34.2017C147.6 33.9618 146.7 33.6026 145.6 33.6026C143.381 33.6026 141.12 34.8219 141.12 37.1001C141.12 39.1794 142.94 40.518 144.98 40.518C146.539 40.518 147.4 39.8183 147.939 38.998H148.019V40.1974H150.26V34.2402C150.261 31.4835 148.199 29.9448 145.541 29.9448ZM145.26 38.4598C144.501 38.4598 143.44 38.0795 143.44 37.1399C143.44 35.9405 144.761 35.4806 145.901 35.4806C146.92 35.4806 147.401 35.7006 148.02 36.0001C147.84 37.4406 146.6 38.4598 145.26 38.4598ZM158.42 30.2841L155.76 37.0205H155.68L152.92 30.2841H150.42L154.56 39.699L152.2 44.9365H154.62L161 30.2841H158.42ZM137.521 40.2247H139.84V24.6874H137.521V40.2247Z" fill="white"/>
<path d="M63.6242 15.4973C63.6242 16.52 63.3161 17.334 62.6986 17.9417C61.9979 18.6642 61.0835 19.0254 59.9603 19.0254C58.8844 19.0254 57.9688 18.6593 57.2171 17.9271C56.4642 17.1937 56.0878 16.2857 56.0878 15.202C56.0878 14.1171 56.4642 13.2092 57.2171 12.4769C57.9688 11.7435 58.8844 11.3774 59.9603 11.3774C60.4946 11.3774 61.0052 11.4799 61.4897 11.6837C61.9755 11.8887 62.3644 12.1609 62.6551 12.5013L62.0004 13.1457C61.5071 12.566 60.8275 12.2768 59.9591 12.2768C59.1739 12.2768 58.4955 12.5477 57.9228 13.0896C57.35 13.6314 57.0643 14.3356 57.0643 15.2008C57.0643 16.066 57.35 16.7702 57.9228 17.312C58.4955 17.8539 59.1739 18.1248 59.9591 18.1248C60.7915 18.1248 61.486 17.8527 62.0414 17.3071C62.4017 16.952 62.6104 16.4578 62.6663 15.8244H59.9591V14.9445H63.5707C63.608 15.1361 63.6242 15.3204 63.6242 15.4973Z" fill="white"/>
<path d="M69.3518 12.4392H65.9575V14.7603H69.0188V15.6402H65.9575V17.9613H69.3518V18.862H64.9996V11.5398H69.3518V12.4392Z" fill="white"/>
<path d="M73.3907 18.862H72.4328V12.4392H70.3505V11.5398H75.4729V12.4392H73.3907V18.862Z" fill="white"/>
<path d="M79.179 18.862V11.5398H80.1368V18.862H79.179Z" fill="white"/>
<path d="M84.3848 18.862H83.4269V12.4392H81.3447V11.5398H86.4671V12.4392H84.3848V18.862Z" fill="white"/>
<path d="M96.1637 17.9162C95.4307 18.6557 94.52 19.0255 93.4305 19.0255C92.3409 19.0255 91.4302 18.6557 90.6984 17.9162C89.9654 17.1766 89.6001 16.2711 89.6001 15.2009C89.6001 14.1306 89.9654 13.2251 90.6984 12.4855C91.4302 11.746 92.3409 11.375 93.4305 11.375C94.5138 11.375 95.4233 11.7472 96.1588 12.4904C96.8943 13.2336 97.262 14.1367 97.262 15.2009C97.262 16.2711 96.8955 17.1766 96.1637 17.9162ZM91.4053 17.3023C91.957 17.8515 92.6316 18.1249 93.4305 18.1249C94.2293 18.1249 94.9052 17.8503 95.4556 17.3023C96.0072 16.7532 96.2843 16.0527 96.2843 15.2009C96.2843 14.349 96.0072 13.6485 95.4556 13.0994C94.9052 12.5502 94.2293 12.2769 93.4305 12.2769C92.6316 12.2769 91.957 12.5514 91.4053 13.0994C90.855 13.6485 90.5779 14.349 90.5779 15.2009C90.5779 16.0527 90.855 16.7532 91.4053 17.3023Z" fill="white"/>
<path d="M98.6063 18.862V11.5398H99.7717L103.395 17.2352H103.436L103.395 15.8245V11.5398H104.352V18.862H103.352L99.5617 12.8895H99.5207L99.5617 14.3002V18.862H98.6063Z" fill="white"/>
<path d="M63.6242 15.4973C63.6242 16.52 63.3161 17.334 62.6986 17.9417C61.9979 18.6642 61.0835 19.0254 59.9603 19.0254C58.8844 19.0254 57.9688 18.6593 57.2171 17.9271C56.4642 17.1937 56.0878 16.2857 56.0878 15.202C56.0878 14.1171 56.4642 13.2092 57.2171 12.4769C57.9688 11.7435 58.8844 11.3774 59.9603 11.3774C60.4946 11.3774 61.0052 11.4799 61.4897 11.6837C61.9755 11.8887 62.3644 12.1609 62.6551 12.5013L62.0004 13.1457C61.5071 12.566 60.8275 12.2768 59.9591 12.2768C59.1739 12.2768 58.4955 12.5477 57.9228 13.0896C57.35 13.6314 57.0643 14.3356 57.0643 15.2008C57.0643 16.066 57.35 16.7702 57.9228 17.312C58.4955 17.8539 59.1739 18.1248 59.9591 18.1248C60.7915 18.1248 61.486 17.8527 62.0414 17.3071C62.4017 16.952 62.6104 16.4578 62.6663 15.8244H59.9591V14.9445H63.5707C63.608 15.1361 63.6242 15.3204 63.6242 15.4973Z" stroke="white" stroke-width="0.0510032" stroke-miterlimit="10"/>
<path d="M69.3518 12.4392H65.9575V14.7603H69.0188V15.6402H65.9575V17.9613H69.3518V18.862H64.9996V11.5398H69.3518V12.4392Z" stroke="white" stroke-width="0.0510032" stroke-miterlimit="10"/>
<path d="M73.3907 18.862H72.4328V12.4392H70.3505V11.5398H75.4729V12.4392H73.3907V18.862Z" stroke="white" stroke-width="0.0510032" stroke-miterlimit="10"/>
<path d="M79.179 18.862V11.5398H80.1368V18.862H79.179Z" stroke="white" stroke-width="0.0510032" stroke-miterlimit="10"/>
<path d="M84.3848 18.862H83.4269V12.4392H81.3447V11.5398H86.4671V12.4392H84.3848V18.862Z" stroke="white" stroke-width="0.0510032" stroke-miterlimit="10"/>
<path d="M96.1637 17.9162C95.4307 18.6557 94.52 19.0255 93.4305 19.0255C92.3409 19.0255 91.4302 18.6557 90.6984 17.9162C89.9654 17.1766 89.6001 16.2711 89.6001 15.2009C89.6001 14.1306 89.9654 13.2251 90.6984 12.4855C91.4302 11.746 92.3409 11.375 93.4305 11.375C94.5138 11.375 95.4233 11.7472 96.1588 12.4904C96.8943 13.2336 97.262 14.1367 97.262 15.2009C97.262 16.2711 96.8955 17.1766 96.1637 17.9162ZM91.4053 17.3023C91.957 17.8515 92.6316 18.1249 93.4305 18.1249C94.2293 18.1249 94.9052 17.8503 95.4556 17.3023C96.0072 16.7532 96.2843 16.0527 96.2843 15.2009C96.2843 14.349 96.0072 13.6485 95.4556 13.0994C94.9052 12.5502 94.2293 12.2769 93.4305 12.2769C92.6316 12.2769 91.957 12.5514 91.4053 13.0994C90.855 13.6485 90.5779 14.349 90.5779 15.2009C90.5779 16.0527 90.855 16.7532 91.4053 17.3023Z" stroke="white" stroke-width="0.0510032" stroke-miterlimit="10"/>
<path d="M98.6063 18.862V11.5398H99.7717L103.395 17.2352H103.436L103.395 15.8245V11.5398H104.352V18.862H103.352L99.5617 12.8895H99.5207L99.5617 14.3002V18.862H98.6063Z" stroke="white" stroke-width="0.0510032" stroke-miterlimit="10"/>
<defs>
<filter id="filter0_ii_572_7563" x="17.5" y="11.375" width="30.4005" height="33.9966" filterUnits="userSpaceOnUse" color-interpolation-filters="sRGB">
<feFlood flood-opacity="0" result="BackgroundImageFix"/>
<feBlend mode="normal" in="SourceGraphic" in2="BackgroundImageFix" result="shape"/>
<feColorMatrix in="SourceAlpha" type="matrix" values="0 0 0 0 0 0 0 0 0 0 0 0 0 0 0 0 0 0 127 0" result="hardAlpha"/>
<feOffset dy="-0.198265"/>
<feComposite in2="hardAlpha" operator="arithmetic" k2="-1" k3="1"/>
<feColorMatrix type="matrix" values="0 0 0 0 0 0 0 0 0 0 0 0 0 0 0 0 0 0 0.12 0"/>
<feBlend mode="normal" in2="shape" result="effect1_innerShadow_572_7563"/>
<feColorMatrix in="SourceAlpha" type="matrix" values="0 0 0 0 0 0 0 0 0 0 0 0 0 0 0 0 0 0 127 0" result="hardAlpha"/>
<feOffset dy="0.198265"/>
<feComposite in2="hardAlpha" operator="arithmetic" k2="-1" k3="1"/>
<feColorMatrix type="matrix" values="0 0 0 0 1 0 0 0 0 1 0 0 0 0 1 0 0 0 0.25 0"/>
<feBlend mode="normal" in2="effect1_innerShadow_572_7563" result="effect2_innerShadow_572_7563"/>
</filter>
<filter id="filter1_i_572_7563" x="18.1096" y="28.3727" width="21.9694" height="16.9989" filterUnits="userSpaceOnUse" color-interpolation-filters="sRGB">
<feFlood flood-opacity="0" result="BackgroundImageFix"/>
<feBlend mode="normal" in="SourceGraphic" in2="BackgroundImageFix" result="shape"/>
<feColorMatrix in="SourceAlpha" type="matrix" values="0 0 0 0 0 0 0 0 0 0 0 0 0 0 0 0 0 0 127 0" result="hardAlpha"/>
<feOffset dy="-0.198265"/>
<feComposite in2="hardAlpha" operator="arithmetic" k2="-1" k3="1"/>
<feColorMatrix type="matrix" values="0 0 0 0 0 0 0 0 0 0 0 0 0 0 0 0 0 0 0.08 0"/>
<feBlend mode="normal" in2="shape" result="effect1_innerShadow_572_7563"/>
</filter>
<linearGradient id="paint0_linear_572_7563" x1="33.0728" y1="13.4476" x2="10.8911" y2="35.5432" gradientUnits="userSpaceOnUse">
<stop stop-color="#00A0FF"/>
<stop offset="0.0066" stop-color="#00A1FF"/>
<stop offset="0.2601" stop-color="#00BEFF"/>
<stop offset="0.5122" stop-color="#00D2FF"/>
<stop offset="0.7604" stop-color="#00DFFF"/>
<stop offset="1" stop-color="#00E3FF"/>
</linearGradient>
<linearGradient id="paint1_linear_572_7563" x1="48.9153" y1="28.3726" x2="17.0582" y2="28.3726" gradientUnits="userSpaceOnUse">
<stop stop-color="#FFE000"/>
<stop offset="0.4087" stop-color="#FFBD00"/>
<stop offset="0.7754" stop-color="#FFA500"/>
<stop offset="1" stop-color="#FF9C00"/>
</linearGradient>
<linearGradient id="paint2_linear_572_7563" x1="37.0587" y1="31.4047" x2="6.97743" y2="61.369" gradientUnits="userSpaceOnUse">
<stop stop-color="#FF3A44"/>
<stop offset="1" stop-color="#C31162"/>
</linearGradient>
<linearGradient id="paint3_linear_572_7563" x1="13.9772" y1="2.17003" x2="27.4094" y2="15.5499" gradientUnits="userSpaceOnUse">
<stop stop-color="#32A071"/>
<stop offset="0.0685" stop-color="#2DA771"/>
<stop offset="0.4762" stop-color="#15CF74"/>
<stop offset="0.8009" stop-color="#06E775"/>
<stop offset="1" stop-color="#00F076"/>
</linearGradient>
</defs>
</svg>
