<svg xmlns="http://www.w3.org/2000/svg" viewBox="0 0 48 48" id="car-wash"><g data-name="Automatic Wash"><path d="M47 6H1a1 1 0 0 0-1 1v4a1 1 0 0 0 1 1h1v35a1 1 0 0 0 1 1h4a1 1 0 0 0 1-1V12h13v2h-7a3 3 0 0 0 0 6h20a3 3 0 0 0 0-6h-7v-2h13v35a1 1 0 0 0 1 1h4a1 1 0 0 0 1-1V12h1a1 1 0 0 0 1-1V7a1 1 0 0 0-1-1ZM6 46H4V12h2Zm28-28H14a1 1 0 0 1 0-2h20a1 1 0 0 1 0 2Zm-9-4h-2v-2h2Zm19 32h-2V12h2Zm2-36H2V8h44Z"></path><path d="M15 24v-2a1 1 0 0 0-2 0v2a1 1 0 0 0 2 0zm4 2v-2a1 1 0 0 0-2 0v2a1 1 0 0 0 2 0zm4-2v-2a1 1 0 0 0-2 0v2a1 1 0 0 0 2 0zm4 2v-2a1 1 0 0 0-2 0v2a1 1 0 0 0 2 0zm4-2v-2a1 1 0 0 0-2 0v2a1 1 0 0 0 2 0zm4 1v-2a1 1 0 0 0-2 0v2a1 1 0 0 0 2 0zm2 8c-3.34 0-3.14 0-3.4.09C31.88 28.49 31.92 28 31 28H17a1 1 0 0 0-.94.65C14.07 34 14.6 33 14 33h-3a1 1 0 0 0-1 1v3a1 1 0 0 0 1 1h1v5a1 1 0 0 0 1 1h1v1.5a2.5 2.5 0 0 0 5 0V44h10v1.5a2.5 2.5 0 0 0 5 0V44h1a1 1 0 0 0 1-1v-5h1a1 1 0 0 0 1-1v-3a1 1 0 0 0-1-1zm-19.31-3h12.62l2.25 6H15.44zM12 35h1v1h-1zm5 10.5a.5.5 0 0 1-1 0V44h1zm15 0a.5.5 0 0 1-1 0V44h1zM14 42v-1h3a1 1 0 0 0 0-2h-3v-1h20v1h-3a1 1 0 0 0 0 2h3v1zm22-6h-1v-1h1z"></path></g></svg>