<svg xmlns="http://www.w3.org/2000/svg" width="100" height="100" enable-background="new 0 0 100 100" viewBox="0 0 100 100" id="car-washing"><polygon fill="#37D0F6" points="35.491 14.153 31.922 4.973 28.353 14.154 19.175 17.724 28.353 21.294 31.922 30.472 35.491 21.294 44.669 17.725"></polygon><polygon fill="#37D0F6" points="17.774 25.467 14.839 21.085 11.903 25.468 7.522 28.404 11.903 31.339 14.839 35.722 17.774 31.338 22.157 28.405"></polygon><path fill="#143151" d="M91.249,42.333l1.229-1.879l-2.207-0.416c-7.818-1.471-11.066-7.732-14.504-14.361
		C72.149,18.7,68.409,11.487,59.153,9.746l-0.436-0.081l-0.41,0.168c-4.577,1.875-6.898,4.048-9.916,7.148
		c-2.143,2.201-4.061,4.912-5.916,7.532c-1.788,2.528-3.638,5.142-5.617,7.176l-0.33,0.338H23.466l-4.471,19H8.466v7l7.757,1.107
		l-2.757,6.893v29h12l0.665-7.979L72.8,87.032l0.666,7.995h12v-29l-2.757-6.893l7.757-1.107v-7h-7.901
		C85.253,49.304,88.058,47.215,91.249,42.333z M75.956,55.937l0.021,0.09h-0.109C75.896,55.997,75.926,55.966,75.956,55.937z
		 M55.628,59.616c-3.75-3.293-5.699-7.804-7.756-12.561c-1.759-4.067-3.566-8.241-6.602-11.688
		c5.309,2.469,8.037,7.705,10.889,13.204c1.721,3.319,3.479,6.687,5.836,9.499L55.628,59.616z M27.426,37.027h11.275
		c2.892,3.128,4.624,7.072,6.417,11.219c1.134,2.623,2.289,5.292,3.779,7.781H22.955L27.426,37.027z M23.966,77.027
		c-3.037,0-5.5-2.463-5.5-5.5s2.463-5.5,5.5-5.5s5.5,2.463,5.5,5.5S27.003,77.027,23.966,77.027z M62.466,81.027h-26l-1-7h28
		L62.466,81.027z M74.966,77.027c-3.037,0-5.5-2.463-5.5-5.5s2.463-5.5,5.5-5.5s5.5,2.463,5.5,5.5S78.003,77.027,74.966,77.027z
		 M79.925,49.146c-3.502,2.193-7.118,4.46-11.63,12.179c-7.081-1.809-10.19-7.804-13.473-14.135
		c-3.274-6.314-6.649-12.823-14.124-15.292c1.484-1.776,2.872-3.737,4.227-5.651c1.789-2.527,3.638-5.14,5.617-7.174
		c2.731-2.805,4.638-4.644,8.488-6.291c7.51,1.616,10.699,7.769,14.073,14.275c3.316,6.396,6.735,12.99,14.415,15.385
		C84.798,46.093,82.421,47.582,79.925,49.146z"></path></svg>