<svg xmlns="http://www.w3.org/2000/svg" width="100" height="100" enable-background="new 0 0 100 100" viewBox="0 0 100 100" id="car-washing"><path fill="#37D0F6" d="M80,31l4.471,19h6.172c0.12-0.288,0.246-0.574,0.334-0.88c0.402-1.394,0.412-2.85,0.063-4.219
			c1.719-1.109,3.033-2.815,3.621-4.854c1.32-4.582-1.332-9.382-5.908-10.701c-0.561-0.161-1.135-0.266-1.711-0.312
			c-1.26-3.754-4.297-6.758-8.203-7.884c-1.107-0.318-2.248-0.48-3.393-0.48c-5.414,0-10.244,3.639-11.746,8.85
			c-0.143,0.492-0.241,0.985-0.319,1.479H80z"></path><circle cx="60" cy="18" r="6" fill="#37D0F6"></circle><circle cx="47" cy="11" r="5" fill="#37D0F6"></circle><path fill="#143151" d="M95,50H84.47L80,31H28l-4.471,19H13v7l7.756,1.107L18,65v29h12l0.664-7.979l46.669-0.017L78,94h12V65
		l-2.758-6.893L95,57V50z M31.958,36h44.08l4.471,19H27.488L31.958,36z M28.5,76c-3.037,0-5.5-2.463-5.5-5.5s2.463-5.5,5.5-5.5
		s5.5,2.463,5.5,5.5S31.537,76,28.5,76z M67,80H41l-1-7h28L67,80z M79.5,76c-3.037,0-5.5-2.463-5.5-5.5s2.463-5.5,5.5-5.5
		s5.5,2.463,5.5,5.5S82.537,76,79.5,76z"></path><path fill="#37D0F6" d="M18,65l2.756-6.893L13,57v-7h10.529L28,31h30.35c-0.295-0.795-0.67-1.566-1.139-2.297
			c-1.713-2.671-4.363-4.515-7.461-5.188c-0.826-0.182-1.674-0.273-2.516-0.273c-1.805,0-3.57,0.42-5.17,1.203
			c-1.75-3.133-4.787-5.471-8.408-6.262c-0.898-0.195-1.814-0.295-2.727-0.295c-5.953,0-11.195,4.223-12.467,10.041
			c-0.291,1.336-0.365,2.694-0.227,4.031c-6.377,2.034-11.342,7.35-12.797,14.018C3.353,55.536,8.908,65.013,18,68.025V65z"></path></svg>