<svg width="62" height="62" viewBox="0 0 62 62" fill="none" xmlns="http://www.w3.org/2000/svg">
<g clip-path="url(#clip0_572_7314)">
<path d="M16.0847 54.2568V59.987H5.57941V54.2568" stroke="white" stroke-width="1.91005" stroke-miterlimit="10" stroke-linecap="square"/>
<path d="M57.1509 54.2568V59.987H46.6456V54.2568" stroke="white" stroke-width="1.91005" stroke-miterlimit="10" stroke-linecap="square"/>
<path d="M17.9948 21.786H14.7114C14.2855 21.7861 13.8718 21.9285 13.5361 22.1907C13.2004 22.4528 12.9619 22.8197 12.8586 23.2329L9.39954 37.0664" stroke="white" stroke-width="1.91005" stroke-miterlimit="10"/>
<path d="M53.3307 37.0664L49.8726 23.2329C49.7692 22.8195 49.5306 22.4525 49.1948 22.1904C48.8589 21.9282 48.445 21.7859 48.0189 21.786H44.7355" stroke="white" stroke-width="1.91005" stroke-miterlimit="10"/>
<path d="M57.1508 54.2569H5.57941V41.6773C5.57951 41.1707 5.78082 40.685 6.13905 40.3269L9.39951 37.0664H53.3307L56.5912 40.3269C56.9494 40.685 57.1507 41.1707 57.1508 41.6773V54.2569Z" stroke="white" stroke-width="1.91005" stroke-miterlimit="10" stroke-linecap="square"/>
<path d="M14.1746 48.5267C15.757 48.5267 17.0397 47.2439 17.0397 45.6616C17.0397 44.0792 15.757 42.7965 14.1746 42.7965C12.5923 42.7965 11.3096 44.0792 11.3096 45.6616C11.3096 47.2439 12.5923 48.5267 14.1746 48.5267Z" stroke="white" stroke-width="1.91005" stroke-miterlimit="10" stroke-linecap="square"/>
<path d="M48.5556 48.5267C50.138 48.5267 51.4207 47.2439 51.4207 45.6616C51.4207 44.0792 50.138 42.7965 48.5556 42.7965C46.9733 42.7965 45.6906 44.0792 45.6906 45.6616C45.6906 47.2439 46.9733 48.5267 48.5556 48.5267Z" stroke="white" stroke-width="1.91005" stroke-miterlimit="10" stroke-linecap="square"/>
<path d="M26.59 45.6616H36.1402" stroke="white" stroke-width="1.91005" stroke-miterlimit="10" stroke-linecap="square"/>
<path d="M22.7698 18.4214C22.7698 12.8498 31.3651 3.6405 31.3651 3.6405C31.3651 3.6405 39.9603 12.8498 39.9603 18.4214C40.0255 19.5905 39.8516 20.7606 39.4491 21.8601C39.0467 22.9597 38.4241 23.9656 37.6196 24.8163C36.815 25.667 35.8454 26.3446 34.77 26.8077C33.6945 27.2708 32.536 27.5097 31.3651 27.5097C30.1942 27.5097 29.0356 27.2708 27.9602 26.8077C26.8848 26.3446 25.9152 25.667 25.1106 24.8163C24.3061 23.9656 23.6835 22.9597 23.281 21.8601C22.8786 20.7606 22.7046 19.5905 22.7698 18.4214Z" stroke="#AF6E00" stroke-width="1.91005" stroke-miterlimit="10" stroke-linecap="square"/>
<path d="M31.3651 21.7858C30.3738 21.7858 28.5001 21.0829 28.5001 18.4213C28.5287 17.4051 29.6919 15.2019 31.3651 12.7866C33.0383 15.2105 34.2054 17.4156 34.2302 18.428C34.2302 21.0829 32.3565 21.7858 31.3651 21.7858Z" stroke="#AF6E00" stroke-width="1.91005" stroke-miterlimit="10" stroke-linecap="square"/>
</g>
<defs>
<clipPath id="clip0_572_7314">
<rect width="61.1217" height="61.1217" fill="white" transform="translate(0.80426 0.775269)"/>
</clipPath>
</defs>
</svg>
