<svg width="53" height="53" viewBox="0 0 53 53" fill="none" xmlns="http://www.w3.org/2000/svg">
<g clip-path="url(#clip0_572_7467)">
<path fill-rule="evenodd" clip-rule="evenodd" d="M39.8813 14.584H27.7723L31.2776 11.0332H39.8813V14.584ZM27.7707 8.77087L22.1578 14.4568H9.52747C8.11101 14.4568 6.96277 15.6051 6.96277 17.0216V44.1364C6.96277 45.5529 8.11101 46.7011 9.52747 46.7011H41.5852C43.0018 46.7011 44.15 45.5529 44.15 44.1364V10.5728C44.15 9.1563 43.0018 8.00806 41.5852 8.00806H29.5959C28.9099 8.00806 28.2526 8.28272 27.7707 8.77087Z" fill="#353740"/>
<path fill-rule="evenodd" clip-rule="evenodd" d="M19.8866 12.3771H9.84692V10.5728C9.84692 9.15634 10.9952 8.00793 12.4116 8.00793H17.3219C18.7384 8.00793 19.8866 9.15634 19.8866 10.5728V12.3771Z" fill="#353740"/>
<path fill-rule="evenodd" clip-rule="evenodd" d="M20.5745 31.3254L25.5563 21.7477L30.5382 31.3254C31.9695 34.0768 30.8992 37.4675 28.1479 38.8987C25.3964 40.33 22.0056 39.2595 20.5745 36.5081C19.7025 34.8318 19.775 32.8885 20.5745 31.3254Z" fill="white"/>
</g>
<defs>
<clipPath id="clip0_572_7467">
<rect width="52.2073" height="52.2073" fill="white" transform="translate(0.0273438 0.187256)"/>
</clipPath>
</defs>
</svg>
