<svg width="53" height="53" viewBox="0 0 53 53" fill="none" xmlns="http://www.w3.org/2000/svg">
<g clip-path="url(#clip0_572_7478)">
<path d="M46.511 22.1128H44.6941V23.9285H43.7739V22.1128H41.9609V21.1926H43.7739V19.3772H44.6941V21.1926H46.511V22.1128ZM24.5474 35.2749L22.4016 32.4179H24.2616L24.9038 27.3552H21.1603L22.66 20.2727H24.9038L23.4354 25.5512H27.5508L26.0472 32.5522H27.8837L24.5474 35.2749ZM6.1511 22.1128H10.7052V21.1926H6.1511V22.1128ZM47.4352 12.9808H47.5761C47.4743 12.9698 47.3764 12.9639 47.2746 12.9639H42.2703V10.2311H33.3932V12.9639H16.8843V10.2311H8.00718V12.9639H4.3146C4.21279 12.9639 4.11098 12.9698 4.01309 12.9808H4.15797C2.63473 13.0701 1.46783 14.3991 1.62446 15.9372L4.67485 37.3373C4.81582 38.7196 5.97881 39.7721 7.36499 39.7721H44.5884C45.9981 39.7721 47.1689 38.6933 47.2864 37.2915L49.9687 15.891C50.094 14.3693 48.9349 13.0697 47.4352 12.9808Z" fill="#353740"/>
</g>
<defs>
<clipPath id="clip0_572_7478">
<rect width="52.2073" height="52.2073" fill="white" transform="translate(0.0871582 0.187134)"/>
</clipPath>
</defs>
</svg>
