<svg width="53" height="53" viewBox="0 0 53 53" fill="none" xmlns="http://www.w3.org/2000/svg">
<g clip-path="url(#clip0_572_7488)">
<path d="M16.9858 15.844L11.6563 10.5143C7.58496 14.586 5.06689 20.2102 5.06689 26.4228C5.06689 32.6357 7.58514 38.2601 11.6563 42.3314L16.9858 37.0016C11.1526 31.1687 11.1526 21.6775 16.9858 15.844ZM27.565 17.0078C22.3653 17.0078 18.1496 21.2231 18.1496 26.4228C18.1496 31.6227 22.3651 35.838 27.565 35.838C32.7654 35.838 36.9804 31.6227 36.9804 26.4228C36.9804 21.2231 32.7654 17.0078 27.565 17.0078ZM27.565 19.1921C28.3984 19.1921 29.074 19.8679 29.074 20.7015C29.074 21.5349 28.3984 22.2107 27.565 22.2107C26.7316 22.2107 26.056 21.5349 26.056 20.7015C26.056 19.8679 26.7316 19.1921 27.565 19.1921ZM23.3644 30.5905C22.6424 31.0071 21.7195 30.7598 21.303 30.0382C20.8865 29.3162 21.1334 28.3931 21.8553 27.9768C22.5773 27.5601 23.5002 27.807 23.9167 28.5284C24.3333 29.2506 24.0864 30.1737 23.3644 30.5905ZM23.9173 24.3165C23.5004 25.0385 22.5773 25.2858 21.8553 24.8691C21.1334 24.4524 20.8861 23.5295 21.303 22.8075C21.7199 22.086 22.6429 21.8386 23.3644 22.2553C24.0864 22.672 24.3338 23.5951 23.9173 24.3165ZM27.565 33.6537C26.7311 33.6534 26.0556 32.9779 26.0556 32.1447C26.056 31.3107 26.7311 30.6351 27.5641 30.6351C28.398 30.6355 29.0737 31.3109 29.074 32.1445C29.0737 32.9779 28.398 33.6537 27.565 33.6537ZM27.565 28.9427C26.1736 28.9427 25.0453 27.8144 25.0453 26.423C25.0453 25.0316 26.1736 23.9035 27.565 23.9035C28.9569 23.9035 30.0846 25.0316 30.0846 26.423C30.0846 27.8144 28.9569 28.9427 27.565 28.9427ZM33.827 30.0378C33.4101 30.7602 32.487 31.0074 31.7656 30.5909C31.0433 30.1737 30.7958 29.2511 31.2124 28.5297C31.6298 27.8077 32.5528 27.5604 33.2743 27.9768C33.9961 28.3938 34.2435 29.3169 33.827 30.0378ZM33.275 24.8692C32.5521 25.2859 31.6296 25.0388 31.2127 24.3174C30.7965 23.5953 31.044 22.6722 31.7651 22.2557C32.4874 21.8388 33.4105 22.086 33.8268 22.8075C34.2439 23.5295 33.9966 24.4525 33.275 24.8692ZM27.565 5.78079C22.1829 5.78079 17.2826 7.84112 13.6078 11.2156L17.6111 15.219C17.9565 15.5642 17.9565 16.1242 17.6111 16.4696C14.9568 19.1239 13.4952 22.6586 13.4952 26.423C13.4952 30.1875 14.957 33.7225 17.6111 36.3766C17.9565 36.7218 17.9565 37.2818 17.6111 37.6272L13.6078 41.6306C17.2824 45.0047 22.1827 47.0654 27.565 47.0654C38.9655 47.0654 48.2076 37.8235 48.2076 26.423C48.2076 15.0227 38.9653 5.78079 27.565 5.78079ZM27.565 36.7225C21.8858 36.7225 17.2653 32.1022 17.2653 26.423C17.2653 20.744 21.8858 16.1237 27.565 16.1237C33.2442 16.1237 37.8647 20.744 37.8647 26.423C37.8647 32.1022 33.2442 36.7225 27.565 36.7225Z" fill="#353740"/>
</g>
<defs>
<clipPath id="clip0_572_7488">
<rect width="52.2073" height="52.2073" fill="white" transform="translate(0.533447 0.187134)"/>
</clipPath>
</defs>
</svg>
