<svg width="54" height="53" viewBox="0 0 54 53" fill="none" xmlns="http://www.w3.org/2000/svg">
<g clip-path="url(#clip0_572_7494)">
<path d="M2.49726 41.8413C0.474059 43.8644 0.474059 47.1445 2.49726 49.1681C4.52045 51.1909 7.80092 51.1909 9.82412 49.1681C10.487 48.5051 10.9313 47.7064 11.1598 46.8621L4.80293 40.5056C3.95839 40.7341 3.16009 41.1784 2.49726 41.8413ZM7.68627 43.9789C8.52908 44.8215 8.52927 46.1877 7.68647 47.0303C6.84366 47.8733 5.47733 47.8733 4.63471 47.0305C3.7921 46.1877 3.7921 44.8215 4.63471 43.9785C5.47752 43.1363 6.84366 43.1363 7.68627 43.9789ZM16.2569 25.81L25.8555 35.4085L45.7759 15.4875L36.1775 5.88925L16.2569 25.81ZM4.99928 39.3394L12.3261 46.6659L24.0381 34.9535L16.7115 27.627L4.99928 39.3394ZM49.4903 2.17485C46.8397 -0.475535 42.5423 -0.475342 39.8917 2.17485C38.7412 3.32538 38.0909 4.78651 37.939 6.2883L45.3771 13.7263C46.8787 13.5747 48.3398 12.9242 49.4903 11.7735C52.1407 9.12289 52.1407 4.82543 49.4903 2.17485ZM46.8442 9.12733C45.6551 10.3164 43.7269 10.3166 42.5379 9.12733C41.3488 7.93826 41.3488 6.01006 42.5379 4.821C43.7269 3.63194 45.6551 3.63194 46.8442 4.82081C48.0334 6.01006 48.0332 7.93826 46.8442 9.12733Z" fill="#353740"/>
</g>
<defs>
<clipPath id="clip0_572_7494">
<rect width="52.2073" height="52.2073" fill="white" transform="translate(0.979919 0.187134)"/>
</clipPath>
</defs>
</svg>
