<svg width="54" height="53" viewBox="0 0 54 53" fill="none" xmlns="http://www.w3.org/2000/svg">
<g clip-path="url(#clip0_572_7511)">
<path d="M32.7546 42.9937H20.6374C18.0284 42.9937 15.9026 40.8679 15.9026 38.2589V18.7206C15.9026 16.1116 18.0284 13.9858 20.6374 13.9858H32.7546C35.3636 13.9858 37.4894 16.1116 37.4894 18.7206V38.2589C37.4701 40.8679 35.3636 42.9937 32.7546 42.9937Z" fill="#353740"/>
<path d="M19.787 44.6363V50.6852L24.889 47.941V44.6363H19.787Z" fill="#353740"/>
<path d="M28.4062 44.6363V50.6852L33.5275 47.941V44.6363H28.4062Z" fill="#353740"/>
<path d="M27.672 15.7444H22.454V12.3237L17.9705 8.98039V1.65594H29.6432V6.85456H23.8455L27.672 9.71477V15.7444Z" fill="#353740"/>
<path d="M37.0837 0.187134H31.8851V8.53584H37.0837V0.187134Z" fill="#353740"/>
</g>
<defs>
<clipPath id="clip0_572_7511">
<rect width="52.2073" height="52.2073" fill="white" transform="translate(0.986084 0.187134)"/>
</clipPath>
</defs>
</svg>
