<svg width="54" height="53" viewBox="0 0 54 53" fill="none" xmlns="http://www.w3.org/2000/svg">
<g clip-path="url(#clip0_572_7525)">
<path fill-rule="evenodd" clip-rule="evenodd" d="M45.4714 31.8019C45.4648 32.6109 44.6956 33.2608 43.806 33.2536L37.4485 33.2023C36.9437 33.1984 36.5544 32.7351 36.5594 32.168L36.5704 30.7847C36.5749 30.2171 36.9719 29.6958 37.4777 29.6168L43.843 28.6229C44.7342 28.4837 45.4935 29.0199 45.4875 29.8294L45.4714 31.8019ZM47.1319 22.2256C49.3744 21.5486 50.6207 19.8853 50.4087 18.6624C50.2977 18.0233 49.7532 17.3026 48.9779 17.0494C47.9746 16.7217 47.1418 17.3587 47.0435 17.4366C46.7569 18.005 46.4698 18.5734 46.1832 19.1415L44.769 12.7766C44.1848 10.1535 42.7634 7.84863 40.2652 7.82847C31.9551 7.76751 23.6456 7.70655 15.3355 7.64545C12.8368 7.62543 11.5435 9.95412 10.756 12.525L8.75155 19.041L7.82274 17.1201C7.78243 17.0824 6.8343 16.2256 5.73431 16.6455C4.98884 16.9301 4.53382 17.6635 4.43442 18.2797C4.25275 19.4011 5.14069 20.7926 6.76251 21.5259C8.00663 20.9257 9.36615 20.5276 10.7986 20.3702L12.6468 13.9135C12.845 13.2407 13.1145 12.5947 13.4497 11.9882V12.002C13.6811 11.6864 13.9119 11.3709 14.1433 11.0554C14.6756 10.4907 15.3957 10.1813 16.1406 10.1972L39.1603 10.383C41.0659 10.3984 42.2079 12.1471 42.5939 14.1552L44.0103 20.7584L14.5458 20.5204C20.3025 21.6286 24.6517 26.6923 24.6517 32.7721C24.6517 35.3675 23.8593 37.7778 22.5031 39.774L41.0985 39.9242L41.0886 41.1601C41.0864 42.0066 41.7159 42.6963 42.4989 42.7051L48.5588 42.7538C49.3418 42.7576 49.9824 42.0784 49.994 41.2319L50.016 38.4858C50.5533 30.195 50.8637 26.847 47.8718 23.4675L47.1319 22.2256Z" fill="#353740"/>
<path fill-rule="evenodd" clip-rule="evenodd" d="M12.1283 29.968C10.5407 29.968 9.25299 31.2558 9.25299 32.8433C9.25299 34.4309 10.5407 35.7187 12.1283 35.7187C13.7159 35.7187 15.0036 34.4309 15.0036 32.8433C15.0036 31.2558 13.7159 29.968 12.1283 29.968Z" fill="#353740"/>
<path fill-rule="evenodd" clip-rule="evenodd" d="M19.3328 33.7596C19.3328 34.1444 19.0175 34.4592 18.6326 34.4592H17.4553C17.3112 34.9357 17.1047 35.3852 16.8452 35.7983L17.6089 36.5614C17.8811 36.8342 17.8811 37.2793 17.6089 37.5515L16.5751 38.5853C16.3029 38.8575 15.8573 38.8575 15.5856 38.5853L14.7523 37.7525C14.3238 37.9828 13.8611 38.1579 13.3746 38.2694V39.3484C13.3746 39.7327 13.0593 40.048 12.6744 40.048H11.2121C10.8273 40.048 10.5125 39.7327 10.5125 39.3484V38.1711C10.0359 38.0264 9.58645 37.8199 9.1734 37.5604L8.4097 38.3241C8.13747 38.5963 7.69239 38.5963 7.42016 38.3241L6.38588 37.2903C6.11364 37.0181 6.11364 36.5725 6.38588 36.3008L7.2186 35.4675C6.98889 35.039 6.81328 34.5763 6.70229 34.0898H5.62329C5.2384 34.0898 4.92365 33.775 4.92365 33.3901V31.9273C4.92365 31.5425 5.2384 31.2277 5.62329 31.2277H6.80058C6.94471 30.7512 7.15123 30.3017 7.41077 29.8886L6.64707 29.1255C6.37484 28.8532 6.37484 28.4076 6.64707 28.1354L7.68135 27.1016C7.95359 26.8294 8.39866 26.8294 8.6709 27.1016L9.50362 27.9344C9.93268 27.7041 10.3949 27.529 10.8819 27.4175V26.339C10.8819 25.9536 11.1967 25.6389 11.5816 25.6389H13.0438C13.4287 25.6389 13.744 25.9536 13.744 26.339V27.5158C14.2205 27.6599 14.67 27.8664 15.0831 28.126L15.8462 27.3628C16.119 27.0906 16.5641 27.0906 16.8363 27.3628L17.8701 28.3966C18.1423 28.6688 18.1423 29.1144 17.8701 29.3861L17.0373 30.2188C17.267 30.6479 17.4426 31.1106 17.5542 31.5971H18.6326C19.0175 31.5971 19.3328 31.9119 19.3328 32.2968V33.7596ZM12.1741 22.4637C6.48031 22.4637 1.86499 27.079 1.86499 32.7722C1.86499 38.466 6.48031 43.0813 12.1741 43.0813C17.8673 43.0813 22.4826 38.466 22.4826 32.7722C22.4826 27.079 17.8673 22.4637 12.1741 22.4637Z" fill="#353740"/>
</g>
<defs>
<clipPath id="clip0_572_7525">
<rect width="52.2073" height="52.2073" fill="white" transform="translate(0.932495 0.187134)"/>
</clipPath>
</defs>
</svg>
