<svg width="54" height="53" viewBox="0 0 54 53" fill="none" xmlns="http://www.w3.org/2000/svg">
<g clip-path="url(#clip0_572_7537)">
<path fill-rule="evenodd" clip-rule="evenodd" d="M44.8789 16.7143C37.9135 14.8297 30.7706 19.2753 27.6874 21.5648C27.4937 19.0385 29.0326 16.5927 31.5723 15.7571C35.7558 14.3817 40.3833 11.7363 38.9709 6.90571C36.5172 -1.488 19.9122 -2.52568 17.4182 6.69829C15.5376 13.6494 19.9606 20.7792 22.2528 23.8699C19.7293 24.0628 17.2837 22.5258 16.4497 19.9847C15.0749 15.8023 12.4276 11.1753 7.59833 12.5881C-0.795657 15.042 -1.83414 31.6448 7.39117 34.1404C14.3646 36.0275 21.5184 31.5687 24.5908 29.2819C24.7979 31.8167 23.259 34.2766 20.7086 35.1157C16.5277 36.4907 11.9002 39.1357 13.3127 43.967C15.7663 52.3602 32.3687 53.3979 34.8653 44.1745C36.7486 37.2093 32.3041 30.0664 30.0146 26.9848C32.5408 26.7919 34.9837 28.3295 35.8204 30.8703C37.1952 35.0525 39.8398 39.6794 44.6718 38.2667C53.0658 35.8128 54.1016 19.2102 44.8789 16.7143Z" fill="#353740"/>
</g>
<defs>
<clipPath id="clip0_572_7537">
<rect width="52.2073" height="52.2073" fill="white" transform="translate(0.87915 0.187134)"/>
</clipPath>
</defs>
</svg>
